<?xml version="1.0" encoding="iso-8859-1"?>
<!-- Uploaded to: SVG Repo, www.svgrepo.com, Generator: SVG Repo Mixer Tools -->
<svg height="800px" width="800px" version="1.1" id="Layer_1" xmlns="http://www.w3.org/2000/svg" xmlns:xlink="http://www.w3.org/1999/xlink" 
	 viewBox="0 0 512.001 512.001" xml:space="preserve">
<path style="fill:#CF9B00;" d="M126.603,0c-12.854,0-23.273,10.419-23.273,23.273v465.455c0,12.853,10.419,23.273,23.273,23.273
	s23.273-10.419,23.273-23.273V23.273C149.875,10.419,139.456,0,126.603,0z"/>
<path style="fill:#E8AE00;" d="M126.603,0c-12.854,0-23.273,10.419-23.273,23.273v465.455c0,12.853,10.419,23.273,23.273,23.273V0z"
	/>
<path style="fill:#4AB6BF;" d="M354.328,72.394H104.146c-9.639,0-17.455,7.815-17.455,17.455v178.037
	c0,9.639,7.815,17.455,17.455,17.455h232.727c9.639,0,17.455-7.815,17.455-17.455L354.328,72.394L354.328,72.394z"/>
<path style="fill:#00655B;" d="M425.31,139.884c0-9.639-7.815-17.455-17.455-17.455H274.037v195.491
	c0,9.639,7.815,17.455,17.455,17.455h116.364c9.639,0,17.455-7.815,17.455-17.455V139.884z"/>
<polygon style="fill:#00564C;" points="274.037,122.429 354.328,72.394 354.328,122.429 "/>
</svg>